Coordinates
version=1
nRows=15
nColumns=38
inDegrees=yes

Units are S.I. units (second, meters, Newtons, ...)
Angles are in degrees.

endheader
time	pelvis_tilt	pelvis_list	pelvis_rotation	pelvis_tx	pelvis_ty	pelvis_tz	hip_flexion_r	hip_adduction_r	hip_rotation_r	knee_angle_r	ankle_angle_r	subtalar_angle_r	mtp_angle_r	hip_flexion_l	hip_adduction_l	hip_rotation_l	knee_angle_l	ankle_angle_l	subtalar_angle_l	mtp_angle_l	lumbar_extension	lumbar_bending	lumbar_rotation	arm_flex_r	arm_add_r	arm_rot_r	elbow_flex_r	pro_sup_r	wrist_flex_r	wrist_dev_r	arm_flex_l	arm_add_l	arm_rot_l	elbow_flex_l	pro_sup_l	wrist_flex_l	wrist_dev_l
      1.81000000	     -2.43647652	     -0.78362672	      0.38172629	      0.56310252	      0.94079449	     -0.32054089	     29.56900483	      1.23844455	     -6.75812956	    -36.85415287	      1.16288448	    -10.81517946	      0.00000000	     -4.93832255	      3.13734099	      1.56901231	    -10.95168645	     11.66555573	    -11.94177918	      0.00000000	     -6.92001773	      1.51024117	     -6.14059426	     -3.79933647	     -9.35205488	     46.40975468	     23.91096716	     44.07018660	      0.00000000	      0.00000000	      5.77379973	    -14.38872787	     27.17829231	     45.33053513	     44.07018660	      0.00000000	      0.00000000
      1.82000000	     -2.45904200	     -0.79952126	      0.80207443	      0.57558817	      0.93938511	     -0.32064045	     29.33484309	      1.21420371	     -7.02894988	    -32.84182432	      1.60444683	     -9.96343163	      0.00000000	     -5.73164178	      3.03146255	      1.96492019	    -10.99406536	     11.90369921	    -11.70845897	      0.00000000	     -6.90255408	      1.54598289	     -6.37861335	     -5.04536310	     -9.49401092	     46.41884938	     23.37178455	     44.08048509	      0.00000000	      0.00000000	      6.89438005	    -14.59742628	     26.97802119	     45.88793892	     44.08048509	      0.00000000	      0.00000000
      1.83000000	     -2.49238415	     -0.80073120	      1.20485670	      0.58827740	      0.93792542	     -0.32065531	     29.04749527	      1.17855613	     -7.33873030	    -28.79655935	      2.11034701	     -9.16536996	      0.00000000	     -6.54250097	      2.91526096	      2.35752864	    -10.99093832	     12.03556919	    -11.44257465	      0.00000000	     -6.84689649	      1.56074672	     -6.71515659	     -6.12604278	     -9.48488495	     46.27425919	     22.55662138	     44.09676042	      0.00000000	      0.00000000	      7.85995677	    -14.90746704	     26.70199851	     46.92193733	     44.09676042	      0.00000000	      0.00000000
      1.84000000	     -2.52879879	     -0.86144685	      1.63095332	      0.60116031	      0.93636085	     -0.32057105	     28.65551408	      1.20384352	     -7.55405779	    -24.71225377	      2.53074340	     -8.55269556	      0.00000000	     -7.31303728	      2.70507215	      2.68183822	    -11.07891193	     12.22699461	    -11.11950600	      0.00000000	     -6.76521784	      1.63583117	     -6.96169885	     -7.31445226	     -9.50050796	     46.18624461	     21.94021131	     44.10609915	      0.00000000	      0.00000000	      8.87368443	    -15.15129215	     26.42049671	     47.84647881	     44.10609915	      0.00000000	      0.00000000
      1.85000000	     -2.59940350	     -0.87694142	      2.05281952	      0.61417431	      0.93474588	     -0.32033235	     28.24470113	      1.17175783	     -7.96449797	    -20.69814227	      2.80608734	     -8.28450714	      0.00000000	     -7.90918155	      2.44149130	      2.33958125	    -11.39866378	     12.61926426	     -9.91326818	      0.00000000	     -6.66524618	      1.63574412	     -7.35647663	     -8.10873227	     -9.05142334	     45.36569329	     20.19409097	     44.17328178	      0.00000000	      0.00000000	      8.64809745	    -15.76087774	     24.64284571	     52.02927897	     44.17328178	      0.00000000	      0.00000000
      1.86000000	     -2.60849232	     -0.97647360	      2.43322531	      0.62743328	      0.93315305	     -0.32006061	     27.71923855	      1.23038433	     -8.73575104	    -16.83307372	      3.02974077	     -8.19467369	      0.00000000	     -8.77715482	      2.19584228	      3.11290382	    -11.47416361	     12.57083303	     -9.63134942	      0.00000000	     -6.58654396	      1.77941777	     -7.51547692	     -9.47066984	     -9.08495496	     45.40190524	     19.91300949	     44.18204793	      0.00000000	      0.00000000	      9.67147421	    -15.75974787	     24.17851873	     52.73793272	     44.18204793	      0.00000000	      0.00000000
      1.87000000	     -2.62095459	     -1.12898816	      2.81159119	      0.64083786	      0.93157256	     -0.31953836	     27.01222736	      1.43923941	     -9.65984561	    -12.90785044	      2.99952115	     -8.44385876	      0.00000000	     -9.61357419	      1.83928560	      3.67168642	    -11.54521414	     12.38838110	     -9.40479554	      0.00000000	     -6.51448745	      1.91927212	     -7.71451204	    -10.52558455	     -9.15625647	     45.38100976	     19.64651065	     44.19221454	      0.00000000	      0.00000000	     10.44739307	    -15.83897467	     23.69814981	     53.77334352	     44.19221454	      0.00000000	      0.00000000
      1.88000000	     -2.53755710	     -1.14358963	      3.14386809	      0.65455949	      0.93008178	     -0.31887020	     26.29636466	      1.65080995	     -9.73991673	     -9.58439904	      2.74324426	     -9.61642176	      0.00000000	    -10.39887180	      1.54244061	      3.18281312	    -11.88932455	     12.52273458	     -8.18655443	      0.00000000	     -6.54223391	      1.90683146	     -8.03509146	    -11.44933065	     -9.18912246	     45.15840188	     19.39723725	     44.23264545	      0.00000000	      0.00000000	     10.22076791	    -16.21237474	     21.98628882	     57.20124810	     44.23264545	      0.00000000	      0.00000000
      1.89000000	     -2.46181860	     -1.05865239	      3.31029924	      0.66855509	      0.92855668	     -0.31795115	     25.75645412	      1.75025530	     -9.92594754	     -7.06851982	      2.64431481	     -9.51041047	      0.00000000	    -11.14722517	      1.43492737	      3.00143048	    -12.33175717	     12.18602517	     -7.73591271	      0.00000000	     -6.51586763	      1.77520055	     -7.99708512	    -12.46023459	     -9.18961432	     45.16297945	     19.24397239	     44.24260841	      0.00000000	      0.00000000	     10.92852399	    -16.15677121	     21.41308768	     58.14801855	     44.24260841	      0.00000000	      0.00000000
      1.90000000	     -2.33101204	     -0.96121690	      3.43739915	      0.68274219	      0.92702490	     -0.31680011	     25.22993739	      1.91400930	     -8.93848639	     -5.28492242	      2.37946887	    -10.52756650	      0.00000000	    -11.85752620	      1.21602014	      2.11925777	    -12.98503196	     12.14253316	     -6.03629699	      0.00000000	     -6.58781460	      1.61868846	     -8.17579129	    -13.32478336	     -9.28789741	     44.90126976	     19.29885369	     44.30613099	      0.00000000	      0.00000000	     10.15558503	    -16.17040739	     18.43068381	     62.17809151	     44.30613099	      0.00000000	      0.00000000
      1.91000000	     -2.41504278	     -1.02838223	      3.92101684	      0.69629511	      0.92512668	     -0.31646789	     25.37622683	      1.90426507	     -8.61884071	     -4.98951937	      2.69265753	    -10.37635445	      0.00000000	    -12.28413001	      0.88602522	      2.39497853	    -13.58746503	     11.63220674	     -5.73820338	      0.00000000	     -6.42674447	      1.72406519	     -8.71049322	    -13.89709895	     -9.38151845	     44.91503948	     19.17044931	     44.30728585	      0.00000000	      0.00000000	     10.68107278	    -16.18911060	     18.31781586	     62.40596906	     44.30728585	      0.00000000	      0.00000000
      1.92000000	     -2.21086973	     -0.94709308	      4.18574107	      0.71059694	      0.92358511	     -0.31557914	     25.53103906	      1.81176136	     -8.17460411	     -6.05089780	      3.57163135	     -9.77619787	      0.00000000	    -12.68993645	      0.57982898	      1.66192286	    -14.96830888	     11.69975474	     -3.80949171	      0.00000000	     -6.57331125	      1.62377182	     -8.81030602	    -14.79292712	     -9.40986725	     44.51388391	     19.31871800	     44.40713052	      0.00000000	      0.00000000	     10.15182133	    -15.91507283	     15.45762362	     66.15355135	     44.40713052	      0.00000000	      0.00000000
      1.93000000	     -2.11505982	     -0.94130107	      4.31421788	      0.72517818	      0.92201732	     -0.31445788	     25.67248103	      1.89850332	     -7.15485036	     -7.44820452	      3.96199718	     -9.79058916	      0.00000000	    -13.11111347	      0.25108964	      1.16185169	    -16.06679932	     11.20323321	     -2.55697069	      0.00000000	     -6.52169652	      1.61118303	     -8.86835402	    -15.47436883	     -9.51073565	     44.43502204	     19.23111458	     44.43240437	      0.00000000	      0.00000000	     10.35866902	    -16.09739530	     15.38155569	     67.53935651	     44.43240437	      0.00000000	      0.00000000
      1.94000000	     -2.01147007	     -1.05325913	      4.36533605	      0.74001875	      0.92058649	     -0.31322785	     25.94392960	      2.13885026	     -6.03857414	     -9.58288999	      4.07335708	    -10.06874504	      0.00000000	    -13.49925855	     -0.15347309	      0.87880311	    -17.22424602	     10.41349872	     -1.74316088	      0.00000000	     -6.44661743	      1.74153893	     -8.80531982	    -16.10452440	     -9.59360780	     44.41877132	     19.13565591	     44.44259595	      0.00000000	      0.00000000	     10.59440182	    -16.06789136	     15.24864659	     68.39048658	     44.44259595	      0.00000000	      0.00000000
      1.95000000	     -1.80959790	     -1.33486834	      4.36673393	      0.75522794	      0.91947794	     -0.31193733	     26.16702144	      2.55797265	     -6.31536204	    -12.03844700	      3.09175024	    -10.20511004	      0.00000000	    -14.06145733	     -0.71272441	      0.64160218	    -18.21841396	      9.31076157	     -1.23334131	      0.00000000	     -6.41087162	      2.09967747	     -8.77477249	    -16.55547784	     -9.73864614	     44.41364310	     19.03464737	     44.44616360	      0.00000000	      0.00000000	     10.70957351	    -16.06232431	     15.18132880	     68.86768146	     44.44616360	      0.00000000	      0.00000000
